<?xml version="1.0" standalone="no"?>
<!DOCTYPE svg PUBLIC "-//W3C//DTD SVG 20010904//EN"
 "http://www.w3.org/TR/2001/REC-SVG-20010904/DTD/svg10.dtd">
<svg version="1.0" xmlns="http://www.w3.org/2000/svg"
 width="150.000000pt" height="150.000000pt" viewBox="0 0 150.000000 150.000000"
 preserveAspectRatio="xMidYMid meet">

<g transform="translate(0.000000,150.000000) scale(0.100000,-0.100000)"
fill="#000000" stroke="none">
<path d="M596 1473 c-138 -29 -253 -91 -359 -191 -252 -241 -300 -634 -112
-927 224 -350 689 -450 1033 -221 341 226 434 685 208 1024 -79 119 -208 226
-335 277 -130 53 -299 68 -435 38z m269 -192 c7 -12 -12 -24 -25 -16 -11 7 -4
25 10 25 5 0 11 -4 15 -9z m-296 -105 c-16 -18 -19 -18 -34 -2 -16 16 -16 18
0 36 16 17 18 17 34 2 17 -16 17 -18 0 -36z m327 -93 c-9 -9 175 -194 186
-187 4 3 3 -7 -2 -22 -6 -15 -92 -112 -192 -216 l-181 -189 -24 23 -24 23 -37
-22 -37 -22 -57 56 -57 56 22 38 22 38 -23 24 -23 24 189 181 c160 154 212
197 241 201 2 1 1 -2 -3 -6z m-596 -88 c0 -8 -4 -15 -9 -15 -13 0 -22 16 -14
24 11 11 23 6 23 -9z m955 -275 c-5 -8 -11 -8 -17 -2 -6 6 -7 16 -3 22 5 8 11
8 17 2 6 -6 7 -16 3 -22z m-751 -219 c25 -25 37 -45 33 -55 -10 -26 -69 -56
-109 -56 -37 0 -38 1 -38 36 0 49 37 114 65 114 6 0 28 -18 49 -39z m678 -68
c13 -16 13 -20 -3 -35 -16 -15 -18 -15 -34 2 -14 16 -15 21 -3 34 17 20 22 20
40 -1z m-290 -228 c0 -5 -5 -11 -11 -13 -6 -2 -11 4 -11 13 0 9 5 15 11 13 6
-2 11 -8 11 -13z"/>
<path d="M785 885 c-14 -13 -25 -36 -25 -50 0 -33 42 -75 75 -75 14 0 37 11
52 26 20 20 24 31 19 57 -12 64 -77 87 -121 42z"/>
</g>
</svg>
