<?xml version="1.0" standalone="no"?>
<!DOCTYPE svg PUBLIC "-//W3C//DTD SVG 20010904//EN"
 "http://www.w3.org/TR/2001/REC-SVG-20010904/DTD/svg10.dtd">
<svg version="1.0" xmlns="http://www.w3.org/2000/svg"
 width="512.000000pt" height="512.000000pt" viewBox="0 0 512.000000 512.000000"
 preserveAspectRatio="xMidYMid meet">

<g transform="translate(0.000000,512.000000) scale(0.100000,-0.100000)"
fill="#000000" stroke="none">
<path d="M2360 5084 c-376 -43 -625 -113 -915 -254 -324 -158 -644 -416 -865
-695 -222 -280 -387 -615 -473 -960 -58 -233 -72 -349 -72 -615 0 -266 14
-382 72 -615 86 -345 251 -680 473 -960 221 -279 541 -537 865 -695 241 -117
490 -195 760 -236 169 -26 541 -26 710 0 564 86 1061 339 1451 738 133 136
211 233 316 393 148 224 264 491 331 760 58 233 72 349 72 615 0 266 -14 382
-72 615 -86 345 -251 680 -473 960 -277 351 -692 650 -1115 803 -131 48 -359
105 -505 127 -100 16 -481 28 -560 19z m570 -704 c31 -29 33 -50 4 -50 -8 0
-14 -3 -14 -7 0 -5 -4 -14 -9 -22 -7 -12 -15 -8 -40 17 -36 36 -39 48 -11 55
11 3 20 12 20 21 0 24 14 20 50 -14z m-1006 -235 c10 -23 22 -35 34 -35 25 0
45 -24 40 -47 -2 -10 -18 -25 -36 -33 -23 -10 -35 -23 -39 -42 -5 -24 -10 -28
-38 -28 -28 0 -33 4 -38 28 -4 19 -16 32 -39 42 -18 8 -34 23 -36 33 -5 23 15
47 40 47 12 0 24 12 34 35 11 27 20 35 39 35 19 0 28 -8 39 -35z m1418 -802
c192 -192 348 -355 348 -365 0 -48 -149 -209 -711 -773 l-588 -590 -70 69
c-44 44 -75 67 -84 63 -8 -3 -63 -35 -121 -71 -59 -36 -114 -66 -124 -66 -22
0 -382 360 -382 382 0 10 30 65 66 124 36 58 68 113 71 121 4 9 -19 40 -63 84
l-69 70 590 588 c563 562 725 711 773 711 9 0 173 -156 364 -347z m-2327 82
c31 -32 31 -32 -1 -61 -31 -29 -31 -29 -60 -1 -29 27 -29 29 -1 61 27 32 30
32 62 1z m3267 -906 c25 -25 29 -33 17 -40 -8 -5 -17 -9 -21 -9 -5 0 -8 -7 -8
-15 0 -23 -26 -18 -55 10 -14 14 -25 28 -25 30 0 8 45 53 53 54 5 1 22 -13 39
-30z m-2570 -806 c76 -76 138 -145 138 -154 0 -23 -43 -83 -86 -122 -81 -70
-141 -93 -284 -107 -62 -7 -123 -9 -137 -5 l-25 6 7 97 c10 132 20 183 50 245
40 81 140 177 184 177 9 0 78 -62 153 -137z m2292 -207 c9 -22 24 -37 45 -44
24 -9 31 -17 31 -37 0 -20 -7 -28 -31 -37 -21 -7 -36 -22 -45 -45 -12 -29 -19
-34 -42 -31 -18 2 -28 10 -30 23 -5 28 -32 55 -53 55 -11 0 -21 10 -25 24 -7
30 1 46 25 46 21 0 46 26 55 58 12 36 53 29 70 -12z m-974 -772 c0 -9 9 -18
20 -21 11 -3 20 -11 20 -18 0 -8 -9 -17 -20 -20 -11 -3 -20 -13 -20 -21 0 -8
-9 -14 -20 -14 -11 0 -20 6 -20 14 0 8 -9 18 -20 21 -23 7 -27 35 -5 35 8 0
19 9 25 20 13 24 40 27 40 4z"/>
<path d="M2755 3094 c-167 -59 -220 -280 -101 -421 69 -82 211 -108 314 -57
113 56 168 189 130 318 -16 55 -109 148 -164 164 -54 16 -129 14 -179 -4z"/>
</g>
</svg>
