<?xml version="1.0" standalone="no"?>
<!DOCTYPE svg PUBLIC "-//W3C//DTD SVG 20010904//EN"
 "http://www.w3.org/TR/2001/REC-SVG-20010904/DTD/svg10.dtd">
<svg version="1.0" xmlns="http://www.w3.org/2000/svg"
 width="60.000000pt" height="60.000000pt" viewBox="0 0 60.000000 60.000000"
 preserveAspectRatio="xMidYMid meet">

<g transform="translate(0.000000,60.000000) scale(0.100000,-0.100000)"
fill="#000000" stroke="none">
<path d="M237 590 c-228 -57 -309 -336 -144 -498 118 -116 301 -115 415 1 175
179 67 475 -183 501 -27 3 -67 1 -88 -4z m-7 -110 c0 -5 -4 -10 -10 -10 -5 0
-10 5 -10 10 0 6 5 10 10 10 6 0 10 -4 10 -10z m164 -89 c46 -47 45 -49 -48
-140 -54 -53 -67 -62 -80 -52 -10 9 -16 9 -21 1 -5 -8 -15 -4 -31 11 -16 15
-21 26 -14 34 6 7 5 16 -3 24 -9 9 4 28 64 86 42 41 81 75 86 75 5 0 26 -18
47 -39z m-185 -218 c-17 -19 -49 -16 -49 5 0 31 21 44 42 25 14 -12 15 -19 7
-30z m265 -14 c-3 -5 -10 -7 -15 -3 -5 3 -7 10 -3 15 3 5 10 7 15 3 5 -3 7
-10 3 -15z"/>
</g>
</svg>
