<?xml version="1.0" standalone="no"?>
<!DOCTYPE svg PUBLIC "-//W3C//DTD SVG 20010904//EN"
 "http://www.w3.org/TR/2001/REC-SVG-20010904/DTD/svg10.dtd">
<svg version="1.0" xmlns="http://www.w3.org/2000/svg"
 width="512.000000pt" height="512.000000pt" viewBox="0 0 512.000000 512.000000"
 preserveAspectRatio="xMidYMid meet">

<g transform="translate(0.000000,512.000000) scale(0.100000,-0.100000)"
fill="#000000" stroke="none">
<path d="M2360 5084 c-164 -20 -218 -28 -305 -45 -489 -98 -919 -331 -1281
-693 -408 -408 -641 -880 -726 -1471 -17 -118 -17 -512 0 -630 85 -591 318
-1063 726 -1471 408 -408 880 -641 1471 -726 118 -17 512 -17 630 0 591 85
1063 318 1471 726 408 408 641 880 726 1471 7 52 13 184 13 315 0 131 -6 263
-13 315 -85 591 -318 1063 -726 1471 -399 399 -860 631 -1431 720 -96 15 -478
27 -555 18z m570 -704 c31 -29 33 -50 4 -50 -8 0 -14 -3 -14 -7 0 -5 -4 -14
-9 -22 -7 -12 -15 -8 -40 17 -36 36 -39 48 -11 55 11 3 20 12 20 21 0 24 14
20 50 -14z m-1008 -230 c7 -20 22 -35 44 -45 46 -19 46 -50 -1 -72 -21 -10
-38 -28 -44 -45 -8 -21 -16 -28 -36 -28 -20 0 -28 7 -36 28 -6 17 -23 35 -44
45 -47 22 -47 53 -1 72 22 10 37 25 44 45 9 23 17 30 37 30 20 0 28 -7 37 -30z
m1418 -815 c339 -339 353 -355 341 -378 -44 -82 -179 -227 -702 -752 l-588
-590 -70 69 c-43 43 -75 67 -84 63 -8 -3 -63 -35 -122 -71 -59 -36 -115 -66
-124 -66 -21 0 -381 360 -381 381 0 9 30 65 66 124 36 59 68 114 71 122 4 9
-20 41 -63 84 l-69 70 590 588 c544 542 727 711 769 711 6 0 171 -160 366
-355z m-2325 90 c14 -14 25 -28 25 -30 0 -5 -50 -55 -55 -55 -5 0 -55 50 -55
55 0 7 44 53 52 54 4 1 19 -10 33 -24z m3267 -906 c25 -25 29 -33 17 -40 -8
-5 -17 -9 -21 -9 -5 0 -8 -7 -8 -15 0 -8 -9 -15 -20 -15 -11 0 -20 6 -20 14 0
8 -9 18 -20 21 -23 7 -27 35 -6 35 8 0 18 9 21 20 9 28 21 25 57 -11z m-2568
-808 c132 -132 138 -140 131 -170 -8 -36 -89 -121 -150 -156 -57 -34 -137 -52
-259 -61 -93 -6 -106 -5 -112 10 -11 30 14 249 35 306 35 92 147 210 201 210
8 0 78 -62 154 -139z m2293 -208 c11 -24 27 -40 43 -43 18 -4 26 -13 28 -32 3
-21 -4 -29 -35 -44 -24 -12 -40 -28 -43 -44 -5 -20 -12 -25 -35 -25 -22 0 -31
5 -33 20 -6 28 -32 55 -53 55 -11 0 -21 10 -25 24 -7 30 1 46 25 46 21 0 46
26 55 58 12 37 51 29 73 -15z m-977 -769 c0 -9 9 -18 20 -21 11 -3 20 -11 20
-18 0 -8 -9 -17 -20 -20 -11 -3 -20 -13 -20 -21 0 -8 -9 -14 -20 -14 -11 0
-20 6 -20 14 0 8 -9 18 -20 21 -23 7 -27 35 -5 35 8 0 19 9 25 20 13 24 40 27
40 4z"/>
</g>
</svg>
