<svg xmlns="http://www.w3.org/2000/svg" width="1200" height="630" viewBox="0 0 1200 630" role="img" aria-labelledby="title desc">
	<title id="title">SpaceXpanse ROD RPC Explorer social preview</title>
	<desc id="desc">Deep blue SpaceXpanse ROD Explorer preview card with rocket branding and network utility messaging.</desc>
	<defs>
		<linearGradient id="bg" x1="0" y1="0" x2="1" y2="1">
			<stop offset="0" stop-color="#031a40"/>
			<stop offset=".56" stop-color="#022e70"/>
			<stop offset="1" stop-color="#021126"/>
		</linearGradient>
		<radialGradient id="halo" cx="72%" cy="32%" r="55%">
			<stop offset="0" stop-color="#2f8dff" stop-opacity=".32"/>
			<stop offset="1" stop-color="#2f8dff" stop-opacity="0"/>
		</radialGradient>
	</defs>
	<rect width="1200" height="630" fill="url(#bg)"/>
	<rect width="1200" height="630" fill="url(#halo)"/>
	<path d="M52 482c156-72 288-93 397-65 78 20 134 64 219 81 121 24 254-19 480-159" fill="none" stroke="#f4b73f" stroke-width="4" opacity=".52"/>
	<path d="M74 142h1052M74 488h1052" stroke="#fff" stroke-opacity=".13" stroke-width="1"/>
	<g transform="translate(790 156)">
		<rect width="236" height="236" rx="54" fill="#061d43" stroke="#f4b73f" stroke-width="8"/>
		<circle cx="118" cy="118" r="88" fill="#1c2d66"/>
		<g transform="translate(-10 -10) scale(.92)">
			<g fill="#fff" opacity=".9"><circle cx="58" cy="87" r="4"/><circle cx="88" cy="55" r="3"/><circle cx="201" cy="112" r="3"/><circle cx="194" cy="180" r="5"/><circle cx="78" cy="199" r="2.8"/></g>
			<g transform="rotate(45 128 128)"><path d="M128 44c23 28 32 63 25 105h-50c-7-42 2-77 25-105Z" fill="#f4f7fb"/><path d="M128 44c14 17 23 36 27 58h-54c4-22 13-41 27-58Z" fill="#e91539"/><path d="M103 146l-34 28 3-45 32-8Z" fill="#e91539"/><path d="M153 146l34 28-3-45-32-8Z" fill="#e91539"/><circle cx="128" cy="112" r="15" fill="#13bfe7"/><path d="M111 154h34l-17 45Z" fill="#f4b73f"/></g>
		</g>
	</g>
	<g font-family="Ubuntu, Segoe UI, sans-serif" fill="#fff">
		<text x="84" y="194" font-size="38" font-weight="300" letter-spacing="7" fill="#f4b73f">SPACEXPANSE</text>
		<text x="82" y="286" font-size="78" font-weight="700">ROD RPC Explorer</text>
		<text x="86" y="352" font-size="32" fill="#c9d9f7">Self-hosted chain insight for ROD nodes</text>
		<text x="88" y="439" font-size="27" fill="#ecf4ff">Blocks • transactions • addresses • RPC diagnostics</text>
	</g>
	<circle cx="1065" cy="114" r="6" fill="#f4b73f"/>
	<circle cx="1112" cy="527" r="4" fill="#fff" opacity=".7"/>
	<circle cx="716" cy="103" r="3" fill="#fff" opacity=".55"/>
</svg>
