<svg version="1.1" id="Layer_1" xmlns="http://www.w3.org/2000/svg" xmlns:xlink="http://www.w3.org/1999/xlink" x="0px" y="0px"
	 width="100%" viewBox="0 0 512 512" enable-background="new 0 0 512 512" xml:space="preserve">
<path fill="#000000" opacity="1.000000" stroke="none" 
	d="
M291.000000,513.000000 
	C194.023544,513.000000 97.547081,513.000000 1.035313,513.000000 
	C1.035313,342.398529 1.035313,171.797028 1.035313,1.097768 
	C171.559799,1.097768 342.119690,1.097768 512.839783,1.097768 
	C512.839783,171.666550 512.839783,342.333252 512.839783,513.000000 
	C439.130341,513.000000 365.315155,513.000000 291.000000,513.000000 
M353.919495,491.512817 
	C371.928528,483.655060 389.204285,474.509979 405.165955,462.949585 
	C429.619629,445.238739 450.431427,423.944275 467.297485,398.970490 
	C481.593567,377.802094 492.345001,354.854950 499.847687,330.356171 
	C507.194183,306.367371 510.621216,281.789368 510.803986,256.847565 
	C510.897095,244.139984 509.701660,231.302460 507.782867,218.722870 
	C501.621613,178.329865 486.455963,141.449661 462.544067,108.285774 
	C445.096191,84.086990 423.925079,63.571255 399.224762,46.886341 
	C378.054718,32.586136 355.146545,21.795540 330.651581,14.266018 
	C306.015869,6.693242 280.789032,3.248551 255.165817,3.183542 
	C242.953400,3.152557 230.627472,4.367029 218.540771,6.233541 
	C178.336426,12.442182 141.601685,27.501146 108.548111,51.273056 
	C84.184814,68.794975 63.553120,90.079590 46.779770,114.919762 
	C32.484043,136.090729 21.718586,159.020432 14.200819,183.515671 
	C6.789163,207.665131 3.582813,232.402283 3.128478,257.515991 
	C2.973335,266.091644 4.337714,274.691711 4.948716,283.284851 
	C6.310566,302.437927 10.766545,320.948944 16.936689,339.038513 
	C27.951368,371.331146 44.785236,400.403290 67.499390,425.797974 
	C86.777100,447.350677 109.121040,465.349762 134.600204,479.272522 
	C173.113571,500.317749 214.432602,510.454346 258.196991,510.946838 
	C263.321838,511.004517 268.465057,510.443542 273.581848,509.974121 
	C281.328583,509.263397 289.100494,508.657166 296.789276,507.517609 
	C316.234985,504.635559 334.970764,499.083099 353.919495,491.512817 
z"/>
<path fill="#1B2855" opacity="1.000000" stroke="none" 
	d="
M353.566833,491.665771 
	C334.970764,499.083099 316.234985,504.635559 296.789276,507.517609 
	C289.100494,508.657166 281.328583,509.263397 273.581848,509.974121 
	C268.465057,510.443542 263.321838,511.004517 258.196991,510.946838 
	C214.432602,510.454346 173.113571,500.317749 134.600204,479.272522 
	C109.121040,465.349762 86.777100,447.350677 67.499390,425.797974 
	C44.785236,400.403290 27.951368,371.331146 16.936689,339.038513 
	C10.766545,320.948944 6.310566,302.437927 4.948716,283.284851 
	C4.337714,274.691711 2.973335,266.091644 3.128478,257.515991 
	C3.582813,232.402283 6.789163,207.665131 14.200819,183.515671 
	C21.718586,159.020432 32.484043,136.090729 46.779770,114.919762 
	C63.553120,90.079590 84.184814,68.794975 108.548111,51.273056 
	C141.601685,27.501146 178.336426,12.442182 218.540771,6.233541 
	C230.627472,4.367029 242.953400,3.152557 255.165817,3.183542 
	C280.789032,3.248551 306.015869,6.693242 330.651581,14.266018 
	C355.146545,21.795540 378.054718,32.586136 399.224762,46.886341 
	C423.925079,63.571255 445.096191,84.086990 462.544067,108.285774 
	C486.455963,141.449661 501.621613,178.329865 507.782867,218.722870 
	C509.701660,231.302460 510.897095,244.139984 510.803986,256.847565 
	C510.621216,281.789368 507.194183,306.367371 499.847687,330.356171 
	C492.345001,354.854950 481.593567,377.802094 467.297485,398.970490 
	C450.431427,423.944275 429.619629,445.238739 405.165955,462.949585 
	C389.204285,474.509979 371.928528,483.655060 353.566833,491.665771 
M239.849747,352.258087 
	C240.967056,365.364288 241.998672,378.479004 243.295410,391.567444 
	C243.486679,393.497986 244.626938,396.561584 245.873077,396.865326 
	C247.625381,397.292480 250.427017,396.176422 251.849213,394.775543 
	C268.939087,377.940796 285.998840,361.068634 302.672394,343.825226 
	C305.282257,341.126190 307.410675,336.458923 307.230438,332.827362 
	C306.488403,317.875031 304.769989,302.971130 303.803162,287.443695 
	C319.035828,272.185303 334.581055,257.221893 349.372528,241.547226 
	C357.054413,233.406708 363.403900,224.008865 370.783386,214.654572 
	C375.978912,203.367050 382.881378,192.527206 385.985535,180.691193 
	C391.147919,161.007507 393.927155,140.694443 397.575012,120.621902 
	C398.235779,116.985924 396.040070,115.958504 392.709198,116.496750 
	C387.134460,117.397606 381.559662,118.335503 375.954803,119.006523 
	C348.658264,122.274483 322.308136,128.457108 298.170349,143.899124 
	C289.392090,150.927658 280.096710,157.408325 271.946167,165.101822 
	C256.276855,179.892532 241.256134,195.370316 225.074478,210.369095 
	C211.308792,209.181519 197.523361,208.179337 183.786957,206.716782 
	C178.150192,206.116608 173.810410,207.599426 169.850296,211.575378 
	C153.279388,228.212509 136.528564,244.670761 120.011200,261.360352 
	C118.353577,263.035278 117.828682,265.831268 116.778091,268.106964 
	C118.949455,269.027405 121.060371,270.542480 123.302139,270.770416 
	C136.382309,272.100128 149.493149,273.128113 162.974625,274.818665 
	C167.439987,279.528229 171.905350,284.237793 175.730820,289.263489 
	C171.344254,296.318878 166.988708,303.393860 162.556274,310.420319 
	C160.714981,313.339172 161.430786,315.859863 163.628830,318.070953 
	C174.415756,328.921997 185.171799,339.807098 196.179474,350.430786 
	C197.527496,351.731750 200.950562,352.641327 202.339218,351.849915 
	C210.094193,347.430298 217.519028,342.431366 225.714508,337.871216 
	C230.390091,342.383026 235.065674,346.894806 239.849747,352.258087 
M164.776901,377.411713 
	C173.270218,374.108521 180.065765,368.687408 184.814301,360.899200 
	C186.543152,358.063629 186.918930,355.483307 183.800171,352.600067 
	C176.098068,345.479614 168.736176,337.974426 161.509781,330.365326 
	C158.999985,327.722595 156.894974,327.213470 153.751266,328.962250 
	C146.002701,333.272705 139.747375,339.446167 137.456253,347.744690 
	C134.832062,357.249573 134.140686,367.312988 133.046021,377.182159 
	C132.916550,378.349243 135.642319,381.058746 136.865952,380.954620 
	C145.957596,380.180908 155.004105,378.876709 164.776901,377.411713 
M400.795593,360.708191 
	C397.951813,358.221191 395.903778,358.166718 394.020721,362.057983 
	C393.060516,364.042175 390.689758,365.315094 389.076172,367.022491 
	C388.090637,368.065308 386.637909,369.338226 386.663116,370.479828 
	C386.689453,371.672943 388.158173,372.902100 389.135010,373.991150 
	C390.780701,375.825836 392.461945,377.642700 394.272888,379.309906 
	C395.358398,380.309235 396.672516,381.552277 397.970917,381.662781 
	C398.902802,381.742065 400.028900,380.179932 400.979706,379.258575 
	C402.755737,377.537628 404.498749,375.779755 406.193695,373.979095 
	C407.194611,372.915771 408.914246,371.649109 408.803650,370.638824 
	C408.660614,369.332397 407.049347,368.158844 406.005981,366.985260 
	C404.347351,365.119690 402.635590,363.301331 400.795593,360.708191 
M180.152969,109.266098 
	C182.093307,110.993752 184.020447,112.736565 185.979202,114.443062 
	C187.061432,115.385933 188.279007,117.079178 189.287628,116.976799 
	C190.616531,116.841911 191.865646,115.348320 193.030655,114.306473 
	C194.747696,112.770966 196.398117,111.155388 198.003708,109.502792 
	C199.019440,108.457314 200.759216,107.174889 200.635864,106.191742 
	C200.466583,104.842407 198.899109,103.621689 197.823288,102.444046 
	C196.271759,100.745659 194.672180,99.084023 192.999176,97.506325 
	C191.949905,96.516846 190.739944,95.030670 189.580872,95.010887 
	C188.404160,94.990814 187.084198,96.374855 186.036850,97.365791 
	C184.369446,98.943375 183.178802,101.445168 181.246429,102.235382 
	C177.155655,103.908257 177.524582,106.101395 180.152969,109.266098 
M295.061493,79.699387 
	C295.354034,78.649467 296.227966,77.079140 295.836334,76.641594 
	C294.311096,74.937576 292.384491,73.592789 290.609955,72.116653 
	C284.463593,78.776100 284.463593,78.776100 291.179993,83.496384 
	C292.249359,82.305077 293.318726,81.113777 295.061493,79.699387 
M304.831360,446.082886 
	C305.973907,444.995972 309.626740,445.186310 307.068451,442.202484 
	C305.678925,440.581787 303.760284,439.414795 302.028687,438.001038 
	C300.399994,439.356934 298.577850,440.628021 297.121857,442.231598 
	C296.668213,442.731171 296.896729,444.326782 297.368317,445.066681 
	C297.931610,445.950409 299.435608,446.262421 299.932495,447.155670 
	C302.064331,450.987946 303.186859,449.175812 304.831360,446.082886 
M431.481232,264.212860 
	C429.701599,262.141876 427.921967,260.070892 426.142334,257.999908 
	C423.989960,259.905731 421.837585,261.811554 419.685211,263.717377 
	C420.254425,263.492615 420.823639,263.267883 421.392822,263.043121 
	C422.688202,265.058990 423.983582,267.074829 425.278931,269.090759 
	C427.094696,267.761169 428.910339,266.431396 430.726410,265.102234 
	C430.859894,265.004517 430.996582,264.911133 431.481232,264.212860 
M100.280479,179.028702 
	C101.458183,177.778091 102.905838,176.676468 103.709846,175.219620 
	C104.173836,174.378876 103.858505,172.850525 103.415894,171.841324 
	C102.995712,170.883270 102.087975,169.877380 101.146751,169.480759 
	C100.141922,169.057327 98.692993,168.964798 97.719788,169.383286 
	C96.648026,169.844147 95.747147,170.948959 95.055321,171.966064 
	C94.534912,172.731155 93.940643,174.290833 94.279053,174.650726 
	C95.843544,176.314545 97.722771,177.682419 100.280479,179.028702 
z"/>
<path fill="#F2F2F2" opacity="1.000000" stroke="none" 
	d="
M176.370697,288.947388 
	C171.905350,284.237793 167.439987,279.528229 163.040039,274.279907 
	C184.059097,252.681808 205.012741,231.622467 225.966400,210.563110 
	C241.256134,195.370316 256.276855,179.892532 271.946167,165.101822 
	C280.096710,157.408325 289.392090,150.927658 298.791992,143.972153 
	C307.565399,152.152435 315.748810,160.228119 323.862061,168.373718 
	C339.380859,183.954483 354.859772,199.574982 370.355255,215.179016 
	C363.403900,224.008865 357.054413,233.406708 349.372528,241.547226 
	C334.581055,257.221893 319.035828,272.185303 303.355286,287.901001 
	C281.852020,309.374359 260.796631,330.390472 239.741241,351.406586 
	C235.065674,346.894806 230.390091,342.383026 225.334351,337.432129 
	C209.325043,321.289673 193.699005,305.583252 178.050659,289.899078 
	C177.612686,289.460114 176.936050,289.259247 176.370697,288.947388 
M296.142548,252.839645 
	C297.607178,252.051346 299.135834,251.361679 300.526184,250.459015 
	C310.973114,243.676437 315.286285,230.575439 310.979614,218.848450 
	C306.766113,207.375198 294.735382,199.921646 283.004578,201.516739 
	C266.725769,203.730225 256.301208,218.267822 259.816345,233.853897 
	C263.434723,249.897736 279.024048,258.322571 296.142548,252.839645 
z"/>
<path fill="#E80B20" opacity="1.000000" stroke="none" 
	d="
M370.569336,214.916794 
	C354.859772,199.574982 339.380859,183.954483 323.862061,168.373718 
	C315.748810,160.228119 307.565399,152.152435 299.118011,143.841248 
	C322.308136,128.457108 348.658264,122.274483 375.954803,119.006523 
	C381.559662,118.335503 387.134460,117.397606 392.709198,116.496750 
	C396.040070,115.958504 398.235779,116.985924 397.575012,120.621902 
	C393.927155,140.694443 391.147919,161.007507 385.985535,180.691193 
	C382.881378,192.527206 375.978912,203.367050 370.569336,214.916794 
z"/>
<path fill="#E80A1F" opacity="1.000000" stroke="none" 
	d="
M239.795502,351.832336 
	C260.796631,330.390472 281.852020,309.374359 303.159027,288.203857 
	C304.769989,302.971130 306.488403,317.875031 307.230438,332.827362 
	C307.410675,336.458923 305.282257,341.126190 302.672394,343.825226 
	C285.998840,361.068634 268.939087,377.940796 251.849213,394.775543 
	C250.427017,396.176422 247.625381,397.292480 245.873077,396.865326 
	C244.626938,396.561584 243.486679,393.497986 243.295410,391.567444 
	C241.998672,378.479004 240.967056,365.364288 239.795502,351.832336 
z"/>
<path fill="#E80A1F" opacity="1.000000" stroke="none" 
	d="
M225.520447,210.466110 
	C205.012741,231.622467 184.059097,252.681808 162.849548,273.999573 
	C149.493149,273.128113 136.382309,272.100128 123.302139,270.770416 
	C121.060371,270.542480 118.949455,269.027405 116.778091,268.106964 
	C117.828682,265.831268 118.353577,263.035278 120.011200,261.360352 
	C136.528564,244.670761 153.279388,228.212509 169.850296,211.575378 
	C173.810410,207.599426 178.150192,206.116608 183.786957,206.716782 
	C197.523361,208.179337 211.308792,209.181519 225.520447,210.466110 
z"/>
<path fill="#F2BC51" opacity="1.000000" stroke="none" 
	d="
M164.420837,377.575378 
	C155.004105,378.876709 145.957596,380.180908 136.865952,380.954620 
	C135.642319,381.058746 132.916550,378.349243 133.046021,377.182159 
	C134.140686,367.312988 134.832062,357.249573 137.456253,347.744690 
	C139.747375,339.446167 146.002701,333.272705 153.751266,328.962250 
	C156.894974,327.213470 158.999985,327.722595 161.509781,330.365326 
	C168.736176,337.974426 176.098068,345.479614 183.800171,352.600067 
	C186.918930,355.483307 186.543152,358.063629 184.814301,360.899200 
	C180.065765,368.687408 173.270218,374.108521 164.420837,377.575378 
z"/>
<path fill="#798A9C" opacity="1.000000" stroke="none" 
	d="
M176.050751,289.105438 
	C176.936050,289.259247 177.612686,289.460114 178.050659,289.899078 
	C193.699005,305.583252 209.325043,321.289673 225.005432,337.311707 
	C217.519028,342.431366 210.094193,347.430298 202.339218,351.849915 
	C200.950562,352.641327 197.527496,351.731750 196.179474,350.430786 
	C185.171799,339.807098 174.415756,328.921997 163.628830,318.070953 
	C161.430786,315.859863 160.714981,313.339172 162.556274,310.420319 
	C166.988708,303.393860 171.344254,296.318878 176.050751,289.105438 
z"/>
<path fill="#EBECED" opacity="1.000000" stroke="none" 
	d="
M400.870941,361.085602 
	C402.635590,363.301331 404.347351,365.119690 406.005981,366.985260 
	C407.049347,368.158844 408.660614,369.332397 408.803650,370.638824 
	C408.914246,371.649109 407.194611,372.915771 406.193695,373.979095 
	C404.498749,375.779755 402.755737,377.537628 400.979706,379.258575 
	C400.028900,380.179932 398.902802,381.742065 397.970917,381.662781 
	C396.672516,381.552277 395.358398,380.309235 394.272888,379.309906 
	C392.461945,377.642700 390.780701,375.825836 389.135010,373.991150 
	C388.158173,372.902100 386.689453,371.672943 386.663116,370.479828 
	C386.637909,369.338226 388.090637,368.065308 389.076172,367.022491 
	C390.689758,365.315094 393.060516,364.042175 394.020721,362.057983 
	C395.903778,358.166718 397.951813,358.221191 400.870941,361.085602 
z"/>
<path fill="#EDEDEF" opacity="1.000000" stroke="none" 
	d="
M179.781967,109.151375 
	C177.524582,106.101395 177.155655,103.908257 181.246429,102.235382 
	C183.178802,101.445168 184.369446,98.943375 186.036850,97.365791 
	C187.084198,96.374855 188.404160,94.990814 189.580872,95.010887 
	C190.739944,95.030670 191.949905,96.516846 192.999176,97.506325 
	C194.672180,99.084023 196.271759,100.745659 197.823288,102.444046 
	C198.899109,103.621689 200.466583,104.842407 200.635864,106.191742 
	C200.759216,107.174889 199.019440,108.457314 198.003708,109.502792 
	C196.398117,111.155388 194.747696,112.770966 193.030655,114.306473 
	C191.865646,115.348320 190.616531,116.841911 189.287628,116.976799 
	C188.279007,117.079178 187.061432,115.385933 185.979202,114.443062 
	C184.020447,112.736565 182.093307,110.993752 179.781967,109.151375 
z"/>
<path fill="#DCDEE2" opacity="1.000000" stroke="none" 
	d="
M294.724792,79.810928 
	C293.318726,81.113777 292.249359,82.305077 291.179810,83.496223 
	C284.463593,78.776100 284.463593,78.776100 290.609955,72.116653 
	C292.384491,73.592789 294.311096,74.937576 295.836334,76.641594 
	C296.227966,77.079140 295.354034,78.649467 294.724792,79.810928 
z"/>
<path fill="#E1E2E5" opacity="1.000000" stroke="none" 
	d="
M304.556946,446.309204 
	C303.186859,449.175812 302.064331,450.987946 299.932495,447.155670 
	C299.435608,446.262421 297.931610,445.950409 297.368317,445.066681 
	C296.896729,444.326782 296.668213,442.731171 297.121857,442.231598 
	C298.577850,440.628021 300.399994,439.356934 302.028687,438.001038 
	C303.760284,439.414795 305.678925,440.581787 307.068451,442.202484 
	C309.626740,445.186310 305.973907,444.995972 304.556946,446.309204 
z"/>
<path fill="#E1E2E6" opacity="1.000000" stroke="none" 
	d="
M431.306519,264.514282 
	C430.996582,264.911133 430.859894,265.004517 430.726410,265.102234 
	C428.910339,266.431396 427.094696,267.761169 425.278931,269.090729 
	C423.983582,267.074829 422.688202,265.058990 421.392822,263.043121 
	C420.823639,263.267883 420.254425,263.492615 419.685211,263.717377 
	C421.837585,261.811554 423.989960,259.905731 426.142334,257.999908 
	C427.921967,260.070892 429.701599,262.141876 431.306519,264.514282 
z"/>
<path fill="#E9EAEC" opacity="1.000000" stroke="none" 
	d="
M99.884850,179.092529 
	C97.722771,177.682419 95.843544,176.314545 94.279053,174.650726 
	C93.940643,174.290833 94.534912,172.731155 95.055321,171.966064 
	C95.747147,170.948959 96.648026,169.844147 97.719788,169.383286 
	C98.692993,168.964798 100.141922,169.057327 101.146751,169.480759 
	C102.087975,169.877380 102.995712,170.883270 103.415894,171.841324 
	C103.858505,172.850525 104.173836,174.378876 103.709846,175.219620 
	C102.905838,176.676468 101.458183,177.778091 99.884850,179.092529 
z"/>
<path fill="#03BEF2" opacity="1.000000" stroke="none" 
	d="
M295.771210,252.961853 
	C279.024048,258.322571 263.434723,249.897736 259.816345,233.853897 
	C256.301208,218.267822 266.725769,203.730225 283.004578,201.516739 
	C294.735382,199.921646 306.766113,207.375198 310.979614,218.848450 
	C315.286285,230.575439 310.973114,243.676437 300.526184,250.459015 
	C299.135834,251.361679 297.607178,252.051346 295.771210,252.961853 
z"/>
</svg>